<?xml version="1.0" encoding="iso-8859-1"?>
<!-- Uploaded to: SVG Repo, www.svgrepo.com, Generator: SVG Repo Mixer Tools -->
<svg fill="#e0e0e0" height="800px" width="800px" version="1.1" id="Layer_1" xmlns="http://www.w3.org/2000/svg" xmlns:xlink="http://www.w3.org/1999/xlink" 
	 viewBox="0 0 511.999 511.999" xml:space="preserve">
<g>
	<g>
		<path d="M447.111,249.302v-58.428c0-7.306-0.433-14.736-1.287-22.081c-0.026-0.212-0.073-0.508-0.111-0.719
			c-0.006-0.032-0.017-0.065-0.023-0.097c-1.092-9.028-2.808-17.949-5.111-26.526C418.225,58.167,342.324,0,256.001,0
			S93.776,58.167,71.438,141.394l-0.172,0.627c-2.249,8.472-3.917,17.297-4.984,26.237c-0.026,0.158-0.075,0.31-0.095,0.469
			c-0.86,7.437-1.297,14.888-1.297,22.147v58.428c-26.2,2.911-46.644,25.18-46.644,52.143c0,27.109,20.664,49.483,47.069,52.197
			c2.209,28.98,13.555,56.642,32.553,78.815c19.216,22.427,45.142,38.019,73.678,44.532v5.185c0,16.445,13.363,29.824,29.791,29.825
			c0,0,0,0,0.001,0c4,0,7.923-0.806,11.661-2.393l17.804-7.562c3.783,2.428,8.268,3.853,13.086,3.853h24.22
			c4.819,0,9.304-1.427,13.087-3.853l17.802,7.56c3.738,1.589,7.661,2.393,11.661,2.394c0.001,0,0.001,0,0.003,0
			c7.77,0,15.148-3.005,20.773-8.459c5.814-5.637,9.017-13.225,9.017-21.365v-5.185c28.536-6.513,54.462-22.105,73.678-44.532
			c18.998-22.173,30.344-49.834,32.553-78.815c26.406-2.714,47.07-25.087,47.07-52.197
			C493.756,274.482,473.31,252.212,447.111,249.302z M64.891,333.97c-15.447-2.762-27.209-16.296-27.209-32.525
			c0-16.229,11.762-29.763,27.209-32.525V333.97z M256.001,20.067c71.623,0,135.255,44.572,160.38,110.323
			c-15.317-12.458-33.157-18.744-53.371-18.744c-46.061,0-90.466,33.624-107.009,47.673c-16.54-14.049-60.941-47.673-107.009-47.673
			c-20.214,0-38.052,6.287-53.368,18.743C120.747,64.639,184.378,20.067,256.001,20.067z M219.565,467.581
			c0.001,1.044-0.198,9.173-0.078,14.137c0.054,2.245,0.176,3.843,0.411,3.843l-14.496,6.157c-1.323,0.561-2.69,0.846-4.064,0.846
			c-4.982,0-10.358-3.973-10.358-10.39v-13.144v-12.275c0-6.417,5.376-10.39,10.356-10.39c1.375,0,2.742,0.285,4.066,0.847
			c0,0,14.495,6.156,14.496,6.157c0.391,0.229-0.255,4.315-0.285,4.85C219.44,461.327,219.565,464.469,219.565,467.581z
			 M273.002,461.113c0,1.692,0,3.384,0,5.075c0,3.665,0,7.331,0,10.995C273,478.647,273,480.111,273,481.574
			c0,2.644-2.248,4.889-4.888,4.889c0,0-24.208,0-24.22,0c-2.604,0-4.887-2.244-4.887-4.889c0-5.137,0-10.276,0-15.413
			c0-1.871,0-3.742,0-5.614c0-2.117-0.367-4.386,1.043-6.169c1.74-2.199,4.365-1.912,6.84-1.912c2.858,0,5.716,0,8.576,0
			c3.283,0,6.565,0,9.848,0.001c2.536,0.001,5.411-0.206,6.933,2.289C273.386,456.627,273.002,459.024,273.002,461.113z
			 M321.018,469.029v13.146c0,3.633-1.692,6.036-3.11,7.412c-1.953,1.892-4.592,2.977-7.247,2.977c-1.376,0-2.743-0.285-4.066-0.846
			l-14.495-6.157c0.692-4.145,0.33-8.518,0.329-12.705c-0.001-4.454-0.003-8.909,0.003-13.363c0.003-2.042,0.006-4.103-0.332-6.125
			l14.496-6.157c1.323-0.562,2.69-0.846,4.064-0.846c4.981,0,10.356,3.972,10.356,10.39V469.029z M427.676,258.688v84.519
			l-0.006,0.215c-0.008,0.234-0.014,0.469-0.017,0.706c0,0.013,0.001,0.025,0.001,0.038c-0.224,27.754-10.236,54.586-28.28,75.646
			c-15.526,18.121-36.141,31.067-58.92,37.188v-0.245c0-16.446-13.363-29.825-29.791-29.825c-4,0-7.924,0.806-11.662,2.393
			l-17.767,7.546c-1.129-0.726-2.319-1.341-3.549-1.868c-0.092-0.039-0.184-0.076-0.276-0.114
			c-6.349-2.619-13.642-1.969-20.378-2.252c-8.465-0.355-18.857-0.526-26.262,4.234l-17.766-7.545
			c-3.739-1.589-7.664-2.394-11.664-2.394c-16.428,0-29.791,13.379-29.791,29.825v0.245c-22.779-6.122-43.393-19.067-58.92-37.188
			c-18.045-21.06-28.058-47.892-28.28-75.646c0-0.013,0.001-0.025,0.001-0.038c-0.003-0.237-0.009-0.472-0.017-0.706l-0.006-84.734
			v-67.814c0-5.796,0.321-11.739,0.937-17.696c16.29-28.315,37.151-42.097,63.731-42.097c49.137,0,99.791,47.785,100.296,48.267
			c1.877,1.794,4.294,2.691,6.713,2.691s4.838-0.899,6.718-2.696c0.505-0.483,51.019-48.263,100.291-48.263
			c26.583,0,47.445,13.786,63.735,42.106c0.612,5.899,0.932,11.838,0.932,17.687V258.688z M447.111,333.97v-65.049
			c15.448,2.76,27.21,16.294,27.21,32.525C474.321,317.677,462.559,331.209,447.111,333.97z"/>
	</g>
</g>
<g>
	<g>
		<circle cx="169.474" cy="298.417" r="16.192"/>
	</g>
</g>
<g>
	<g>
		<circle cx="342.535" cy="298.417" r="16.192"/>
	</g>
</g>
<g>
	<g>
		<path d="M313.01,319.815H198.992c-5.368,0-9.717,4.351-9.717,9.717c0,36.793,29.934,66.727,66.727,66.727
			c36.793,0,66.727-29.934,66.727-66.727C322.727,324.167,318.376,319.815,313.01,319.815z M256.001,376.825
			c-22.748,0-41.795-16.143-46.289-37.574h13.212v5.42c0,5.368,4.35,9.717,9.717,9.717s9.717-4.35,9.717-9.717v-5.42h27.283v5.42
			c0,5.368,4.35,9.717,9.717,9.717s9.717-4.35,9.717-9.717v-5.42h13.212C297.796,360.681,278.747,376.825,256.001,376.825z"/>
	</g>
</g>
</svg>