<?xml version="1.0" encoding="iso-8859-1"?>
<!-- Uploaded to: SVG Repo, www.svgrepo.com, Generator: SVG Repo Mixer Tools -->
<svg fill="#e0e0e0" height="800px" width="800px" version="1.1" id="Layer_1" xmlns="http://www.w3.org/2000/svg" xmlns:xlink="http://www.w3.org/1999/xlink" 
	 viewBox="0 0 512 512" xml:space="preserve">
<g>
	<g>
		<path d="M498.339,301.735h-40.39c-4.92,0-8.91,3.989-8.91,8.91v2.97H431.22V175.22c0-15.403-2.014-30.715-5.985-45.513
			c-0.001-0.005-0.002-0.011-0.004-0.015C404.737,53.331,335.146,0,256,0C176.872,0,107.294,53.309,86.781,129.642
			c0,0.002-0.001,0.004-0.002,0.006l-0.154,0.565c-3.877,14.619-5.845,29.761-5.845,45.007v138.394H62.961v-2.97
			c0-4.92-3.989-8.91-8.909-8.91h-40.39c-4.92,0-8.909,3.989-8.909,8.91v87.907c0,4.92,3.989,8.91,8.909,8.91h40.39
			c4.92,0,8.909-3.989,8.909-8.91v-2.97h18.171C85.96,460.586,140.391,512,206.608,512h98.784
			c66.217,0,120.648-51.414,125.477-116.418h18.171v2.97c0,4.92,3.989,8.91,8.91,8.91h40.39c4.92,0,8.909-3.989,8.909-8.91v-87.907
			C507.248,305.725,503.259,301.735,498.339,301.735z M41.695,388.056c0.012,0.078,0.021,0.157,0.036,0.234
			c0.078,0.429,0.189,0.845,0.326,1.25c0.012,0.033,0.015,0.07,0.027,0.105H22.571v-0.001v-70.088h19.514
			c-0.012,0.033-0.015,0.07-0.027,0.105c-0.138,0.405-0.247,0.821-0.326,1.25c-0.014,0.077-0.024,0.156-0.036,0.234
			c-0.071,0.45-0.119,0.91-0.119,1.382v64.148C41.578,387.144,41.625,387.604,41.695,388.056z M80.78,377.763H59.397v-46.329H80.78
			V377.763z M256,17.819c69.549,0,130.885,45.844,150.757,112.042l-12.578,14.824c-4.438-5.23-8.875-10.461-13.313-15.69
			c-2.678-3.155-5.176-6.591-9.716-6.591c-0.435,0-0.864,0.043-1.288,0.106c-4.161,0.612-6.56,4.281-9.109,7.287
			c-2.782,3.279-5.564,6.557-8.346,9.837c-1.403,1.654-2.72,3.55-4.287,5.052c-2.091-2.465-4.183-4.929-6.273-7.394
			c-3.329-3.923-6.49-8.171-10.084-11.85c-0.312-0.32-0.636-0.628-0.978-0.917c-1.585-1.338-3.614-2.122-5.696-2.122
			c-2.616,0-5.099,1.15-6.791,3.143l-16.237,19.138c-5.053-5.956-10.293-11.802-15.134-17.928c-1.946-2.463-4.665-4.353-7.896-4.353
			c-0.435,0-0.864,0.043-1.288,0.106c-1.598,0.234-3.091,0.911-4.332,1.942c-1.892,1.572-3.399,3.719-4.989,5.595
			c-1.587,1.87-3.173,3.74-4.76,5.609c-2.47,2.912-4.941,5.823-7.41,8.735c-0.013,0.015-0.255,0.286-0.249,0.295
			c-5.026-5.924-10.239-11.736-15.065-17.82c-1.32-1.664-2.983-3.241-5.019-3.955c-0.032-0.011-0.062-0.026-0.093-0.037
			c-0.545-0.184-1.111-0.308-1.686-0.384c-0.065-0.008-0.128-0.025-0.194-0.032c-0.181-0.02-0.365-0.021-0.548-0.03
			c-0.141-0.007-0.283-0.024-0.426-0.024c-0.099,0-0.196,0.013-0.295,0.017c-4.794,0.169-7.447,4.248-10.278,7.584
			c-2.875,3.389-5.751,6.777-8.626,10.166c-1.277,1.505-2.553,3.009-3.83,4.514c-2.92-3.443-5.841-6.884-8.761-10.327
			c-1.598-1.884-3.197-3.767-4.794-5.651c-2.559-3.015-4.879-6.157-9.203-6.289c-0.09-0.002-0.179-0.014-0.271-0.014
			c-0.603,0-1.197,0.068-1.778,0.187c-0.049,0.01-0.099,0.013-0.147,0.025c-1.882,0.417-3.597,1.437-4.867,2.934l-16.237,19.136
			c-2.933-3.457-5.867-6.915-8.8-10.372c-1.534-1.807-3.066-3.614-4.6-5.422c-2-2.358-4.171-5.012-7.189-6.063
			c-3.27-1.14-7.028,0.121-9.234,2.72l-16.237,19.136l-12.578-14.824C125.115,63.661,186.451,17.819,256,17.819z M413.398,322.522
			l-0.001,63.749l-0.005,0.368c0,0.002,0,0.005,0,0.007c-0.254,59.339-48.603,107.534-108,107.534h-98.784
			c-59.397,0-107.745-48.196-108.003-107.533c0-0.002,0-0.005,0-0.007l-0.006-64.116V175.22c0-7.92,0.59-15.809,1.757-23.577
			l10.671,12.577c1.693,1.995,4.177,3.144,6.794,3.144c0.655,0,1.3-0.072,1.927-0.21c1.882-0.417,3.597-1.439,4.866-2.934
			l16.237-19.136l16.236,19.135c1.693,1.996,4.177,3.146,6.794,3.146c0.655,0,1.3-0.073,1.927-0.21
			c1.882-0.417,3.597-1.439,4.866-2.934l16.237-19.136l16.237,19.136c1.693,1.995,4.177,3.144,6.794,3.144
			c2.617,0,5.101-1.15,6.794-3.146l16.235-19.135l16.237,19.135c1.693,1.995,4.177,3.144,6.794,3.144c0.655,0,1.3-0.072,1.927-0.21
			c1.882-0.417,3.597-1.439,4.866-2.934l16.237-19.136l16.237,19.136c1.693,1.995,4.177,3.144,6.794,3.144s5.101-1.15,6.794-3.146
			l16.235-19.135l16.237,19.136c1.27,1.496,2.984,2.517,4.866,2.934c0.627,0.139,1.273,0.21,1.927,0.21s1.3-0.072,1.927-0.21
			c1.882-0.417,3.597-1.439,4.866-2.934l16.237-19.136l16.236,19.135c1.693,1.996,4.177,3.146,6.794,3.146
			c2.617,0,5.101-1.15,6.794-3.144l10.666-12.572c1.171,7.782,1.762,15.663,1.762,23.571V322.522z M452.603,377.763H431.22v-46.329
			h21.383V377.763z M489.429,389.643h-19.514c0.012-0.033,0.015-0.07,0.027-0.105c0.138-0.405,0.247-0.821,0.325-1.25
			c0.014-0.077,0.024-0.156,0.036-0.234c0.07-0.451,0.118-0.911,0.118-1.383v-64.148c0-0.472-0.048-0.931-0.118-1.383
			c-0.012-0.078-0.021-0.157-0.036-0.234c-0.078-0.429-0.189-0.845-0.325-1.25c-0.012-0.033-0.015-0.07-0.027-0.105h19.514V389.643z
			"/>
	</g>
</g>
<g>
	<g>
		<circle cx="176.658" cy="346.259" r="14.846"/>
	</g>
</g>
<g>
	<g>
		<circle cx="335.342" cy="346.259" r="14.846"/>
	</g>
</g>
<g>
	<g>
		<path d="M308.269,365.884H203.731c-4.92,0-8.91,3.989-8.91,8.91c0,16.46,6.448,31.903,18.158,43.487
			c0.004,0.004,0.006,0.007,0.01,0.011c11.53,11.402,26.805,17.681,43.012,17.681c16.207,0,31.482-6.279,43.012-17.68
			c0.004-0.004,0.006-0.007,0.009-0.011c11.709-11.585,18.158-27.028,18.158-43.488C317.179,369.873,313.19,365.884,308.269,365.884
			z M256,418.153c-7.37,0-14.469-1.833-20.769-5.283c0.153-0.058,0.307-0.116,0.461-0.173c12.79-4.729,27.815-4.734,40.615,0
			c0.154,0.057,0.309,0.115,0.461,0.173C270.469,416.32,263.37,418.153,256,418.153z M291.265,400.032
			c-0.242-0.14-0.493-0.271-0.739-0.407c-16.189-9.024-37.149-10.225-54.842-5.538c-4.019,1.064-7.995,2.411-11.73,4.239
			c-0.601,0.296-1.195,0.599-1.778,0.912c-0.236,0.127-0.469,0.258-0.703,0.387c-0.246,0.137-0.497,0.268-0.739,0.407
			c-3.525-4.9-5.961-10.441-7.183-16.329h84.898C297.225,389.592,294.79,395.132,291.265,400.032z"/>
	</g>
</g>
<g>
	<g>
		<path d="M345.575,237.587h-19.062v-11.702c0-4.92-3.989-8.909-8.909-8.909s-8.909,3.989-8.909,8.909v11.702h-23.25v-11.702
			c0-4.92-3.989-8.909-8.909-8.909c-4.92,0-8.91,3.989-8.91,8.909v11.702h-23.25v-11.702c0-4.92-3.989-8.909-8.91-8.909
			c-4.92,0-8.909,3.989-8.909,8.909v11.702h-23.25v-11.702c0-4.92-3.989-8.909-8.909-8.909s-8.91,3.989-8.91,8.909v11.702h-19.062
			c-4.92,0-8.909,3.989-8.909,8.909s3.989,8.91,8.909,8.91h19.062v11.702c0,4.92,3.989,8.909,8.91,8.909s8.909-3.989,8.909-8.909
			v-11.702h23.25v11.702c0,4.92,3.989,8.909,8.909,8.909c4.92,0,8.91-3.989,8.91-8.909v-11.702h23.25v11.702
			c0,4.92,3.989,8.909,8.91,8.909c4.92,0,8.909-3.989,8.909-8.909v-11.702h23.25v11.702c0,4.92,3.989,8.909,8.909,8.909
			s8.909-3.989,8.909-8.909v-11.702h19.062c4.92,0,8.909-3.989,8.909-8.91S350.495,237.587,345.575,237.587z"/>
	</g>
</g>
</svg>