<?xml version="1.0" encoding="iso-8859-1"?>
<!-- Uploaded to: SVG Repo, www.svgrepo.com, Generator: SVG Repo Mixer Tools -->
<svg fill="#e0e0e0" height="800px" width="800px" version="1.1" id="Layer_1" xmlns="http://www.w3.org/2000/svg" xmlns:xlink="http://www.w3.org/1999/xlink" 
	 viewBox="0 0 512 512" xml:space="preserve">
<g>
	<g>
		<path d="M216.229,130.217c-3.239-3.795-9.087-3.795-12.325,0c-9.329,10.93-24.449,36.05-9.534,36.05h31.392
			C240.678,166.267,225.558,141.147,216.229,130.217z"/>
	</g>
</g>
<g>
	<g>
		<path d="M308.096,130.217c-3.239-3.795-9.086-3.795-12.325,0c-9.329,10.93-24.449,36.05-9.534,36.05h31.392
			C332.545,166.267,317.425,141.147,308.096,130.217z"/>
	</g>
</g>
<g>
	<g>
		<path d="M260.194,159.217c-2.205-2.584-6.185-2.584-8.389,0c-6.35,7.44-16.642,24.538-6.489,24.538h21.368
			C276.836,183.755,266.545,166.657,260.194,159.217z"/>
	</g>
</g>
<g>
	<g>
		<path d="M291.596,198.566h-14.943v6.62c0,3.351-2.716,6.067-6.067,6.067c-3.351,0-6.067-2.716-6.067-6.067v-6.62h-17.034v6.62
			c0,3.351-2.716,6.067-6.067,6.067c-3.351,0-6.067-2.716-6.067-6.067v-6.62h-14.943c-3.351,0-6.067,2.716-6.067,6.067
			c0,22.973,18.69,41.664,41.663,41.664c22.973,0,41.663-18.69,41.663-41.664C297.663,201.283,294.948,198.566,291.596,198.566z"/>
	</g>
</g>
<g>
	<g>
		<path d="M441.787,259.066h-24.272H374.17c17.269-16.394,28.07-39.537,28.07-65.172v-21.2c0-24.286-5.943-47.846-17.273-68.972
			h23.091c14.399,0,26.114-11.715,26.114-26.114c0-14.399-11.715-26.114-26.114-26.114h-59.67c-1.042-1.702-2.131-3.385-3.269-5.031
			C325.012,17.37,291.696,0,256,0s-69.012,17.37-89.12,46.464c-1.137,1.646-2.226,3.327-3.269,5.03h-59.67
			c-14.399,0-26.114,11.715-26.114,26.114c0,14.399,11.715,26.114,26.114,26.114h23.09c-11.33,21.126-17.273,44.686-17.273,68.972
			v21.2c0,25.634,10.801,48.778,28.07,65.172H94.485H70.213c-15.065,0-27.32,12.255-27.32,27.319c0,15.065,12.255,27.32,27.32,27.32
			H86.06v18.912c0,4.654,3.772,8.425,8.425,8.425h65.547v67.959c0,4.654,3.772,8.425,8.425,8.425h57.086
			c1.11,0,2.168-0.22,3.139-0.61v37.091c-45.853,4.861-86.98,21.926-86.98,49.669c0,4.654,3.772,8.425,8.425,8.425h211.747
			c0.007,0,0.013,0,0.022,0c4.653,0,8.425-3.771,8.425-8.425c0-0.25-0.011-0.498-0.033-0.744
			c-0.729-27.302-41.528-44.107-86.969-48.925v-37.091c0.971,0.39,2.028,0.61,3.139,0.61h57.086c4.653,0,8.425-3.771,8.425-8.425
			v-67.959h65.547c4.653,0,8.425-3.771,8.425-8.425v-18.912h15.847c15.065,0,27.32-12.255,27.32-27.32
			C469.107,271.321,456.852,259.066,441.787,259.066z M86.06,296.856H70.213c-5.774,0-10.47-4.698-10.47-10.47
			s4.697-10.469,10.47-10.469H86.06V296.856z M256,16.85c28.696,0,54.598,12.554,71.908,34.644H184.092
			C201.402,29.404,227.304,16.85,256,16.85z M103.942,86.872c-5.108,0-9.264-4.155-9.264-9.264c0-5.109,4.156-9.264,9.264-9.264
			h64.513h175.089h64.513c5.108,0,9.264,4.155,9.264,9.264c0,5.109-4.156,9.264-9.264,9.264h-38.016H141.958H103.942z
			 M217.118,391.199h-0.001v9.377h-40.236v-67.959c0-4.654-3.772-8.425-8.425-8.425h-65.547v-18.912v-29.366h59.906
			c0.461,0.208,0.931,0.385,1.394,0.585c8.967,3.863,18.573,6.237,28.307,7.014c6.204,0.495,12.479,0.286,18.699,0.286
			c1.968,0,3.936,0,5.904,0V391.199z M349.672,495.15H162.327c9.428-10.966,36.083-22.362,75.095-25.175
			c0.098-0.003,0.194,0.001,0.292-0.006c11.981-0.871,24.587-0.871,36.569,0c0.142,0.01,0.282,0.012,0.422,0.015
			C313.646,472.814,340.255,484.197,349.672,495.15z M237.106,382.774h-3.139v-98.973h44.067v98.973h-3.137H237.106z
			 M266.47,399.624v53.041c-4.428-0.171-8.864-0.232-13.294-0.184c-0.539,0.006-1.078,0.013-1.618,0.022
			c-2.008,0.035-4.019,0.084-6.028,0.162v-53.041H266.47z M225.542,266.95v0.001c-7.91,0-15.822,0-23.732,0
			c-17.538,0-34.468-5.234-48.151-16.354c-11.714-9.52-20.357-22.623-24.398-37.173c-1.765-6.351-2.651-12.938-2.651-19.53v-21.2
			c0-24.591,6.866-48.34,19.899-68.972h218.986c13.033,20.632,19.897,44.382,19.897,68.972v21.2c0,15.403-4.955,30.586-14.047,43.02
			c-9.244,12.642-22.514,22.175-37.49,26.786c-12.581,3.873-25.547,3.251-38.525,3.251c-2.957,0-5.913,0-8.87,0H225.542z
			 M409.09,305.281L409.09,305.281l0,18.912h-65.546c-4.653,0-8.425,3.771-8.425,8.425v67.959h-40.237v-9.377V283.801
			c14.336,0,28.539,0.48,42.475-3.561c4.026-1.168,8.003-2.603,11.827-4.325h59.906V305.281z M441.787,296.856H425.94v-20.941
			h15.847c5.774,0,10.47,4.697,10.47,10.469C452.257,292.157,447.561,296.856,441.787,296.856z"/>
	</g>
</g>
</svg>