<?xml version="1.0" encoding="iso-8859-1"?>
<!-- Uploaded to: SVG Repo, www.svgrepo.com, Generator: SVG Repo Mixer Tools -->
<svg fill="#e0e0e0" height="800px" width="800px" version="1.1" id="Layer_1" xmlns="http://www.w3.org/2000/svg" xmlns:xlink="http://www.w3.org/1999/xlink" 
	 viewBox="0 0 512 512" xml:space="preserve">
<g>
	<g>
		<path d="M491.35,254.843c0-19.652-15.988-35.638-35.638-35.638h-49.739L263.185,3.856C261.588,1.448,258.889,0,255.999,0
			c-2.89,0-5.587,1.448-7.185,3.856L106.026,219.205H56.288c-19.651,0-35.638,15.988-35.638,35.638s15.988,35.639,35.638,35.639
			h24.991l-33.679,63.179c-13.437,25.21-12.683,54.882,2.017,79.377c14.611,24.345,40.219,38.933,68.578,39.109
			C140.482,496.617,172.582,512,208.208,512h95.583c35.627,0,67.728-15.382,90.012-39.854c28.36-0.176,53.969-14.763,68.579-39.11
			c14.7-24.495,15.453-54.167,2.016-79.376l-33.679-63.179h24.991C475.364,290.482,491.35,274.495,491.35,254.843z M255.999,24.221
			l129.286,194.984H126.714L255.999,24.221z M64.401,424.165c-11.555-19.253-12.147-42.578-1.585-62.394l23.642-44.35
			c0,11.681,0,23.36,0,35.041c0,15.093-0.852,30.212,0.216,45.288c1.382,19.506,7.21,38.712,17.338,55.472
			C87.596,449.369,73.366,439.102,64.401,424.165z M303.792,494.758c0,0-95.565,0-95.583,0c-30.972,0-61.035-14.515-80.742-38.332
			c-25.114-30.354-23.768-67.079-23.768-104.332c0-20.222,0-40.444,0-60.666c0-0.316,0-0.632,0-0.947h304.602
			c0,15.649,0,31.298,0,46.947c-0.001,20.205,1.674,41.628-0.61,62.196C401.787,452.785,358.037,494.758,303.792,494.758z
			 M449.184,361.771c10.562,19.815,9.97,43.14-1.584,62.394c-8.964,14.937-23.195,25.204-39.611,29.057
			c0.975-1.614,1.898-3.256,2.795-4.912c0.052-0.095,0.102-0.191,0.154-0.286c8.558-15.874,13.444-33.561,14.427-51.562
			c0.425-7.778,0.178-15.632,0.178-23.423c0-16.239,0-32.48,0-48.719c0-2.3,0-4.6,0-6.9L449.184,361.771z M416.922,273.24H95.077
			H56.288c-10.144,0-18.397-8.253-18.397-18.397c0-10.144,8.253-18.397,18.397-18.397h54.365h290.691h54.366
			c10.144,0,18.397,8.253,18.397,18.397c0,10.144-8.253,18.397-18.397,18.397H416.922z"/>
	</g>
</g>
<g>
	<g>
		<circle cx="179.233" cy="354.419" r="14.365"/>
	</g>
</g>
<g>
	<g>
		<circle cx="332.764" cy="354.419" r="14.365"/>
	</g>
</g>
<g>
	<g>
		<path d="M306.575,396.395H205.424c-4.761,0-8.621,3.86-8.621,8.621c0,32.641,26.556,59.196,59.196,59.196
			s59.196-26.556,59.196-59.196C315.196,400.255,311.336,396.395,306.575,396.395z M255.999,446.97
			c-20.18,0-37.078-14.321-41.065-33.334h11.721v4.808c0,4.761,3.86,8.621,8.621,8.621s8.621-3.86,8.621-8.621v-4.808h24.204v4.808
			c0,4.761,3.86,8.621,8.621,8.621s8.621-3.86,8.621-8.621v-4.808h11.721C293.078,432.649,276.179,446.97,255.999,446.97z"/>
	</g>
</g>
<g>
	<g>
		<path d="M280.791,345.444c-4.198-2.247-9.422-0.666-11.669,3.532l-11.038,20.62c-0.552,1.032-1.438,1.248-2.084,1.248
			c-0.646,0-1.532-0.216-2.084-1.248l-11.038-20.62c-2.246-4.198-7.473-5.779-11.669-3.532c-4.198,2.247-5.778,7.471-3.532,11.669
			l11.038,20.62c3.418,6.386,10.042,10.353,17.285,10.353c7.244,0,13.867-3.968,17.285-10.353l11.038-20.62
			C286.57,352.916,284.988,347.692,280.791,345.444z"/>
	</g>
</g>
<g>
	<g>
		<path d="M204.281,317.656l-46.167-8.559c-4.676-0.864-9.179,2.224-10.048,6.905c-0.868,4.682,2.224,9.179,6.905,10.048
			l46.169,8.559c0.532,0.098,1.061,0.146,1.582,0.146c4.074,0,7.698-2.901,8.467-7.051
			C212.055,323.022,208.963,318.523,204.281,317.656z"/>
	</g>
</g>
<g>
	<g>
		<path d="M363.933,316.002c-0.868-4.681-5.363-7.774-10.048-6.905l-46.169,8.559c-4.682,0.868-7.773,5.366-6.905,10.048
			c0.769,4.151,4.392,7.051,8.467,7.051c0.521,0,1.051-0.048,1.581-0.146l46.17-8.559
			C361.71,325.182,364.801,320.683,363.933,316.002z"/>
	</g>
</g>
</svg>